<svg xmlns="http://www.w3.org/2000/svg" style="display: none;">

  <symbol id="homeOutline" viewBox="0 0 24 24">
    <g clip-path="url(#clip0_homeOutline)">
      <path
        d="M20.42 10.18L12.71 2.3C12.617 2.20627 12.5064 2.13188 12.3846 2.08111C12.2627 2.03034 12.132 2.0042 12 2.0042C11.868 2.0042 11.7373 2.03034 11.6154 2.08111C11.4936 2.13188 11.383 2.20627 11.29 2.3L3.57999 10.19C3.39343 10.3781 3.24609 10.6013 3.14652 10.8468C3.04695 11.0923 2.99715 11.3551 2.99999 11.62V20C2.99922 20.5119 3.19477 21.0046 3.54637 21.3767C3.89797 21.7488 4.37885 21.9718 4.88999 22H19.11C19.6211 21.9718 20.102 21.7488 20.4536 21.3767C20.8052 21.0046 21.0008 20.5119 21 20V11.62C21.0008 11.0829 20.7928 10.5666 20.42 10.18ZM9.99999 20V14H14V20H9.99999ZM19 20H16V13C16 12.7348 15.8946 12.4804 15.7071 12.2929C15.5196 12.1054 15.2652 12 15 12H8.99999C8.73478 12 8.48042 12.1054 8.29289 12.2929C8.10535 12.4804 7.99999 12.7348 7.99999 13V20H4.99999V11.58L12 4.43L19 11.62V20Z"
        fill="currentColor"/>
    </g>
    <defs>
      <clipPath id="clip0_homeOutline">
        <rect width="24" height="24" fill="currentColor"/>
      </clipPath>
    </defs>
  </symbol>

  <symbol id="homeFilled" viewBox="0 0 24 24">
    <g clip-path="url(#clip0_homeFilled)">
      <path d="M14 14H10V21H14V14Z" fill="currentColor"/>
      <path
        d="M20.42 10.18L12.71 2.3C12.617 2.20627 12.5064 2.13188 12.3846 2.08111C12.2627 2.03034 12.132 2.0042 12 2.0042C11.868 2.0042 11.7373 2.03034 11.6154 2.08111C11.4936 2.13188 11.383 2.20627 11.29 2.3L3.57999 10.19C3.39343 10.3781 3.24609 10.6013 3.14652 10.8468C3.04695 11.0923 2.99715 11.3551 2.99999 11.62V20C2.99922 20.5119 3.19477 21.0046 3.54637 21.3767C3.89797 21.7488 4.37885 21.9718 4.88999 22H7.99999V13C7.99999 12.7348 8.10535 12.4804 8.29289 12.2929C8.48042 12.1054 8.73478 12 8.99999 12H15C15.2652 12 15.5196 12.1054 15.7071 12.2929C15.8946 12.4804 16 12.7348 16 13V22H19.11C19.6211 21.9718 20.102 21.7488 20.4536 21.3767C20.8052 21.0046 21.0008 20.5119 21 20V11.62C21.0008 11.0829 20.7928 10.5666 20.42 10.18Z"
        fill="currentColor"/>
    </g>
    <defs>
      <clipPath id="clip0_homeFilled">
        <rect width="24" height="24" fill="currentColor"/>
      </clipPath>
    </defs>
  </symbol>

  <symbol id="addOutline" viewBox="0 0 24 24">
    <g clip-path="url(#clip0_add)">
      <path
        d="M18 3H6C5.20435 3 4.44129 3.31607 3.87868 3.87868C3.31607 4.44129 3 5.20435 3 6V18C3 18.7956 3.31607 19.5587 3.87868 20.1213C4.44129 20.6839 5.20435 21 6 21H18C18.7956 21 19.5587 20.6839 20.1213 20.1213C20.6839 19.5587 21 18.7956 21 18V6C21 5.20435 20.6839 4.44129 20.1213 3.87868C19.5587 3.31607 18.7956 3 18 3ZM19 18C19 18.2652 18.8946 18.5196 18.7071 18.7071C18.5196 18.8946 18.2652 19 18 19H6C5.73478 19 5.48043 18.8946 5.29289 18.7071C5.10536 18.5196 5 18.2652 5 18V6C5 5.73478 5.10536 5.48043 5.29289 5.29289C5.48043 5.10536 5.73478 5 6 5H18C18.2652 5 18.5196 5.10536 18.7071 5.29289C18.8946 5.48043 19 5.73478 19 6V18Z"
        fill="currentColor"/>
      <path
        d="M15 11H13V9C13 8.73478 12.8946 8.48043 12.7071 8.29289C12.5196 8.10536 12.2652 8 12 8C11.7348 8 11.4804 8.10536 11.2929 8.29289C11.1054 8.48043 11 8.73478 11 9V11H9C8.73478 11 8.48043 11.1054 8.29289 11.2929C8.10536 11.4804 8 11.7348 8 12C8 12.2652 8.10536 12.5196 8.29289 12.7071C8.48043 12.8946 8.73478 13 9 13H11V15C11 15.2652 11.1054 15.5196 11.2929 15.7071C11.4804 15.8946 11.7348 16 12 16C12.2652 16 12.5196 15.8946 12.7071 15.7071C12.8946 15.5196 13 15.2652 13 15V13H15C15.2652 13 15.5196 12.8946 15.7071 12.7071C15.8946 12.5196 16 12.2652 16 12C16 11.7348 15.8946 11.4804 15.7071 11.2929C15.5196 11.1054 15.2652 11 15 11Z"
        fill="currentColor"/>
    </g>
    <defs>
      <clipPath id="clip0_add">
        <rect width="24" height="24" fill="currentColor"/>
      </clipPath>
    </defs>
  </symbol>

  <symbol id="addFilled" viewBox="0 0 24 24">
    <g clip-path="url(#clip0_addFilled)">
      <path d="M18 3H6C5.20435 3 4.44129 3.31607 3.87868 3.87868C3.31607 4.44129 3 5.20435 3 6V18C3 18.7956 3.31607 19.5587 3.87868 20.1213C4.44129 20.6839 5.20435 21 6 21H18C18.7956 21 19.5587 20.6839 20.1213 20.1213C20.6839 19.5587 21 18.7956 21 18V6C21 5.20435 20.6839 4.44129 20.1213 3.87868C19.5587 3.31607 18.7956 3 18 3ZM15 13H13V15C13 15.2652 12.8946 15.5196 12.7071 15.7071C12.5196 15.8946 12.2652 16 12 16C11.7348 16 11.4804 15.8946 11.2929 15.7071C11.1054 15.5196 11 15.2652 11 15V13H9C8.73478 13 8.48043 12.8946 8.29289 12.7071C8.10536 12.5196 8 12.2652 8 12C8 11.7348 8.10536 11.4804 8.29289 11.2929C8.48043 11.1054 8.73478 11 9 11H11V9C11 8.73478 11.1054 8.48043 11.2929 8.29289C11.4804 8.10536 11.7348 8 12 8C12.2652 8 12.5196 8.10536 12.7071 8.29289C12.8946 8.48043 13 8.73478 13 9V11H15C15.2652 11 15.5196 11.1054 15.7071 11.2929C15.8946 11.4804 16 11.7348 16 12C16 12.2652 15.8946 12.5196 15.7071 12.7071C15.5196 12.8946 15.2652 13 15 13Z" fill="currentColor"/>
    </g>
    <defs>
      <clipPath id="clip0_addFilled">
        <rect width="24" height="24" fill="currentColor"/>
      </clipPath>
    </defs>
  </symbol>

  <symbol id="personOutline" viewBox="0 0 24 24">
    <g clip-path="url(#clip0_personOutline)">
      <path
        d="M12 11C12.7911 11 13.5645 10.7654 14.2223 10.3259C14.8801 9.88635 15.3928 9.26164 15.6955 8.53074C15.9983 7.79983 16.0775 6.99556 15.9231 6.21964C15.7688 5.44372 15.3878 4.73098 14.8284 4.17157C14.269 3.61216 13.5563 3.2312 12.7804 3.07686C12.0044 2.92252 11.2002 3.00173 10.4693 3.30448C9.73836 3.60723 9.11365 4.11992 8.67412 4.77772C8.2346 5.43552 8 6.20888 8 7C8 8.06087 8.42143 9.07828 9.17157 9.82843C9.92172 10.5786 10.9391 11 12 11ZM12 5C12.3956 5 12.7822 5.1173 13.1111 5.33706C13.44 5.55683 13.6964 5.86918 13.8478 6.23463C13.9991 6.60009 14.0387 7.00222 13.9616 7.39018C13.8844 7.77814 13.6939 8.13451 13.4142 8.41422C13.1345 8.69392 12.7781 8.8844 12.3902 8.96157C12.0022 9.03874 11.6001 8.99914 11.2346 8.84776C10.8692 8.69639 10.5568 8.44004 10.3371 8.11114C10.1173 7.78224 10 7.39556 10 7C10 6.46957 10.2107 5.96086 10.5858 5.58579C10.9609 5.21072 11.4696 5 12 5Z"
        fill="currentColor"/>
      <path
        d="M12 13C10.1435 13 8.36301 13.7375 7.05025 15.0503C5.7375 16.363 5 18.1435 5 20C5 20.2652 5.10536 20.5196 5.29289 20.7071C5.48043 20.8946 5.73478 21 6 21C6.26522 21 6.51957 20.8946 6.70711 20.7071C6.89464 20.5196 7 20.2652 7 20C7 18.6739 7.52678 17.4021 8.46447 16.4645C9.40215 15.5268 10.6739 15 12 15C13.3261 15 14.5979 15.5268 15.5355 16.4645C16.4732 17.4021 17 18.6739 17 20C17 20.2652 17.1054 20.5196 17.2929 20.7071C17.4804 20.8946 17.7348 21 18 21C18.2652 21 18.5196 20.8946 18.7071 20.7071C18.8946 20.5196 19 20.2652 19 20C19 18.1435 18.2625 16.363 16.9497 15.0503C15.637 13.7375 13.8565 13 12 13Z"
        fill="currentColor"/>
    </g>
    <defs>
      <clipPath id="clip0_personOutline">
        <rect width="24" height="24" fill="currentColor"/>
      </clipPath>
    </defs>
  </symbol>

  <symbol id="personFilled" viewBox="0 0 24 24">
    <g clip-path="url(#clip0_personFilled)">
      <path d="M12 11C12.7911 11 13.5645 10.7654 14.2223 10.3259C14.8801 9.88635 15.3928 9.26164 15.6955 8.53074C15.9983 7.79983 16.0775 6.99556 15.9231 6.21964C15.7688 5.44372 15.3878 4.73098 14.8284 4.17157C14.269 3.61216 13.5563 3.2312 12.7804 3.07686C12.0044 2.92252 11.2002 3.00173 10.4693 3.30448C9.73836 3.60723 9.11365 4.11992 8.67412 4.77772C8.2346 5.43552 8 6.20888 8 7C8 8.06087 8.42143 9.07828 9.17157 9.82843C9.92172 10.5786 10.9391 11 12 11Z" fill="currentColor"/>
      <path d="M18 21C18.2652 21 18.5196 20.8946 18.7071 20.7071C18.8946 20.5196 19 20.2652 19 20C19 18.1435 18.2625 16.363 16.9497 15.0503C15.637 13.7375 13.8565 13 12 13C10.1435 13 8.36301 13.7375 7.05025 15.0503C5.7375 16.363 5 18.1435 5 20C5 20.2652 5.10536 20.5196 5.29289 20.7071C5.48043 20.8946 5.73478 21 6 21H18Z" fill="currentColor"/>
    </g>
    <defs>
      <clipPath id="clip0_personFilled">
        <rect width="24" height="24" fill="currentColor"/>
      </clipPath>
    </defs>
  </symbol>

  <symbol id="trendingUp" viewBox="0 0 24 24">
    <svg width="24" height="24" fill="none" xmlns="http://www.w3.org/2000/svg">
      <g clip-path="url(#clip0_301_4749)">
        <path d="M21 7C21.0095 6.93032 21.0095 6.85968 21 6.79C20.9913 6.73129 20.9745 6.67407 20.95 6.62C20.9236 6.57113 20.8935 6.52433 20.86 6.48C20.8219 6.41675 20.7748 6.35947 20.72 6.31L20.6 6.24C20.5423 6.19696 20.4782 6.16321 20.41 6.14H20.21C20.149 6.08099 20.0779 6.03356 20 6H15C14.7348 6 14.4804 6.10536 14.2929 6.29289C14.1053 6.48043 14 6.73478 14 7C14 7.26522 14.1053 7.51957 14.2929 7.70711C14.4804 7.89464 14.7348 8 15 8H17.83L13.83 12.71L9.50999 10.14C9.30537 10.0183 9.06405 9.97359 8.82941 10.0139C8.59478 10.0542 8.38223 10.177 8.22999 10.36L3.22999 16.36C3.14579 16.461 3.08235 16.5777 3.0433 16.7033C3.00426 16.8289 2.99038 16.961 3.00245 17.092C3.01453 17.2229 3.05233 17.3503 3.11368 17.4666C3.17503 17.5829 3.25873 17.6861 3.35999 17.77C3.5399 17.9191 3.76634 18.0005 3.99999 18C4.1469 18.0002 4.29206 17.9681 4.42514 17.9059C4.55823 17.8437 4.67597 17.7529 4.76999 17.64L9.21999 12.3L13.49 14.86C13.6925 14.9801 13.9309 15.0249 14.1633 14.9865C14.3956 14.9481 14.6069 14.8289 14.76 14.65L19 9.7V12C19 12.2652 19.1053 12.5196 19.2929 12.7071C19.4804 12.8946 19.7348 13 20 13C20.2652 13 20.5196 12.8946 20.7071 12.7071C20.8946 12.5196 21 12.2652 21 12V7Z" fill="black"/>
      </g>
      <defs>
        <clipPath id="clip0_301_4749">
          <rect width="24" height="24" fill="white"/>
        </clipPath>
      </defs>
    </svg>
  </symbol>

  <symbol id="bookmarkOutline" viewBox="0 0 24 24">
    <svg width="24" height="24"  fill="none" xmlns="http://www.w3.org/2000/svg">
      <g clip-path="url(#clip0_301_3590)">
        <path d="M6.09002 21.06C5.8248 21.06 5.57045 20.9546 5.38291 20.7671C5.19538 20.5796 5.09002 20.3252 5.09002 20.06L4.94002 5.4C4.92798 5.10234 4.9749 4.80525 5.07809 4.52579C5.18128 4.24633 5.33871 3.99004 5.5413 3.77164C5.7439 3.55324 5.98768 3.37705 6.25862 3.25321C6.52955 3.12936 6.8223 3.0603 7.12002 3.05L16.71 3C17.0081 3.00521 17.3023 3.06909 17.5757 3.18801C17.8491 3.30692 18.0965 3.47854 18.3035 3.69305C18.5106 3.90756 18.6734 4.16077 18.7826 4.43821C18.8918 4.71565 18.9453 5.01189 18.94 5.31L19.08 19.97C19.0817 20.1452 19.0374 20.3178 18.9514 20.4705C18.8654 20.6232 18.7408 20.7506 18.59 20.84C18.438 20.9278 18.2656 20.974 18.09 20.974C17.9145 20.974 17.742 20.9278 17.59 20.84L11.89 17.68L6.60002 20.91C6.44337 20.9975 6.26909 21.0488 6.09002 21.06ZM11.85 15.51C12.0238 15.5103 12.195 15.5514 12.35 15.63L17.06 18.24L16.94 5.29C16.94 5.09 16.81 4.95 16.73 4.96L7.13002 5.05C7.05002 5.05 6.94002 5.18 6.94002 5.38L7.06002 18.28L11.34 15.65C11.4955 15.561 11.6709 15.5128 11.85 15.51Z" fill="black"/>
      </g>
      <defs>
        <clipPath id="clip0_301_3590">
          <rect width="24" height="24" fill="white"/>
        </clipPath>
      </defs>
    </svg>
  </symbol>

  <symbol id="bookmarkFilled" viewBox="0 0 24 24">
    <svg width="24" height="24" fill="none" xmlns="http://www.w3.org/2000/svg">
      <g clip-path="url(#clip0_306_3781)">
        <path d="M6 21C5.82821 20.9995 5.65946 20.9547 5.51 20.87C5.35553 20.7832 5.22691 20.6569 5.1373 20.504C5.04769 20.3511 5.00031 20.1772 5 20V5.33C4.98648 4.73032 5.20983 4.14946 5.62163 3.71332C6.03344 3.27718 6.60053 3.02089 7.2 3H16.8C17.3995 3.02089 17.9666 3.27718 18.3784 3.71332C18.7902 4.14946 19.0135 4.73032 19 5.33V20C18.9989 20.1745 18.9522 20.3457 18.8645 20.4966C18.7768 20.6475 18.6511 20.7727 18.5 20.86C18.348 20.9478 18.1755 20.994 18 20.994C17.8245 20.994 17.652 20.9478 17.5 20.86L11.83 17.65L6.5 20.85C6.34955 20.9434 6.17701 20.9951 6 21Z" fill="black"/>
      </g>
      <defs>
        <clipPath id="clip0_306_3781">
          <rect width="24" height="24" fill="white"/>
        </clipPath>
      </defs>
    </svg>
  </symbol>

</svg>
